<svg width="30" height="30" viewBox="0 0 30 30" fill="none" xmlns="http://www.w3.org/2000/svg">
<path d="M22.3259 0C22.9 0.111305 23.4799 0.181602 24.0423 0.34563C26.3035 1.01932 27.9847 2.41941 29.0802 4.51077C29.7363 5.76441 30.0058 7.10592 29.9999 8.51773C29.994 12.8703 29.9999 17.2229 29.9999 21.5755C29.9999 23.4794 29.4668 25.2193 28.2952 26.7248C26.614 28.8748 24.3879 29.9644 21.6639 29.9878C19.2738 30.0112 16.8838 29.9937 14.4878 29.9937C12.4961 29.9937 10.5044 29.9937 8.51263 29.9937C5.56604 29.9878 3.20525 28.8162 1.48299 26.4144C0.469549 25.0025 0.00676428 23.3974 0.00676428 21.6634C0.000906242 17.1995 -0.00495179 12.7415 0.00676428 8.27755C0.0184803 4.65136 2.32069 1.50554 5.77107 0.404212C6.38617 0.210893 7.04227 0.134737 7.68079 0C12.5605 0 17.4461 0 22.3259 0ZM15.0033 27.3282C15.0033 27.3341 15.0033 27.3341 15.0033 27.3282C17.0712 27.3341 19.1391 27.3341 21.2129 27.3341C21.9861 27.3341 22.7535 27.2989 23.4916 27.0412C25.8583 26.221 27.3228 24.159 27.3345 21.5872C27.3462 17.2054 27.3404 12.8235 27.3404 8.44158C27.3404 7.38711 27.1295 6.37951 26.5788 5.47736C25.4306 3.57932 23.7201 2.66545 21.5175 2.6596C17.1649 2.65374 12.8124 2.6596 8.45991 2.6596C7.59292 2.6596 6.74351 2.78847 5.95853 3.17511C3.79106 4.24715 2.68389 6.01045 2.67217 8.41815C2.64874 12.8118 2.66631 17.2054 2.67217 21.5931C2.67217 22.6476 2.88892 23.6493 3.45129 24.5515C4.58775 26.3909 6.25729 27.3165 8.4189 27.3282C10.6098 27.3399 12.8066 27.3282 15.0033 27.3282Z" fill="white"/>
<path d="M22.7366 15.0144C22.6956 19.3084 19.1925 22.7706 14.9513 22.7237C10.7043 22.6769 7.24802 19.1795 7.27731 14.9558C7.30661 10.7087 10.8097 7.22308 15.0216 7.26409C19.339 7.3051 22.7132 10.7614 22.7366 15.0144ZM14.9748 20.0583C17.7808 20.0758 20.0654 17.8087 20.0654 15.0027C20.0712 12.2142 17.8159 9.95884 15.0041 9.94126C12.2449 9.92369 9.96615 12.1849 9.94272 14.9734C9.91928 17.7502 12.1805 20.0407 14.9748 20.0583Z" fill="white"/>
<path d="M23.0295 5.02044C24.0898 4.99115 24.9744 5.8523 25.0095 6.95363C25.0388 7.97881 24.1542 8.88682 23.1115 8.91025C22.0278 8.93368 21.1315 8.08425 21.1022 7.00635C21.0788 5.94017 21.9399 5.04973 23.0295 5.02044Z" fill="white"/>
</svg>
