<svg width="46" height="42" viewBox="0 0 46 42" fill="none" xmlns="http://www.w3.org/2000/svg">
<path d="M22.4572 41.7811C22.6967 41.7811 22.9363 41.7811 23.1758 41.7811C23.2785 41.7811 23.3811 41.747 23.4838 41.747C25.7081 41.6788 27.864 41.3038 29.9514 40.5878C34.6396 38.9853 38.4038 36.1213 41.244 32.064C43.3657 28.9954 44.6318 25.5859 45.0082 21.9036C45.0425 21.4263 45.1109 20.9489 45.1451 20.4716C45.1451 19.8238 45.1451 19.2101 45.1451 18.5622C45.1109 18.0849 45.0767 17.6417 45.0082 17.1643C44.7003 14.3344 43.879 11.6409 42.5444 9.11786C41.552 7.24262 38.9171 6.96986 37.5483 8.60643C35.0844 11.5045 31.9019 12.8342 28.1035 12.3228C24.3393 11.8114 21.6359 9.73157 20.0276 6.28795C19.8223 5.84471 19.6854 5.33329 19.48 4.89005C18.1797 1.95786 14.9972 0.287189 11.8148 0.832714C10.8566 1.00319 9.93264 1.31004 9.14558 1.88966C6.33953 4.07176 4.14944 6.76529 2.60954 9.97024C1.51449 12.2205 0.830093 14.6072 0.590553 17.1302C0.556333 17.6076 0.487894 18.0508 0.453674 18.5282C0.453674 19.2101 0.453674 19.8579 0.453674 20.5398C0.453674 20.6421 0.487897 20.7443 0.487897 20.8125C0.590557 21.6649 0.624775 22.5173 0.795875 23.3697C1.48028 27.2906 3.08862 30.8025 5.68934 33.8028C9.76154 38.5421 14.8946 41.1674 21.1226 41.6788C21.6017 41.747 22.0466 41.747 22.4572 41.7811ZM15.7158 23.3356C15.7158 23.0287 15.8185 22.756 16.0238 22.4832C16.4687 21.9377 16.8793 21.3922 17.3242 20.8466C17.8375 20.1988 18.4877 20.1988 19.001 20.8466C22.6967 25.4154 26.3925 29.9842 30.0541 34.5529C30.5331 35.1326 30.978 35.7122 31.4571 36.2918C31.7651 36.6668 31.7993 37.1101 31.594 37.5874C31.3544 38.0306 30.978 38.2011 30.4989 38.2011C30.0541 38.2011 29.7119 38.0306 29.4381 37.7238C27.6929 35.9849 25.9476 34.2461 24.2024 32.4731C21.5333 29.7796 18.8641 27.1202 16.1949 24.4266C15.8869 24.1539 15.7158 23.8129 15.7158 23.3356ZM3.53348 16.7211C3.49926 16.687 3.49926 16.687 3.46504 16.6529C3.53348 16.6188 3.60192 16.5847 3.67036 16.5165C4.18366 16.1415 4.66274 15.6982 5.21027 15.3573C6.78439 14.3685 8.46117 13.8912 10.3433 14.0617C11.5068 14.164 12.636 14.539 13.6969 14.9822C14.347 15.255 14.9972 15.6301 15.5105 16.1415C16.058 16.687 16.2976 17.3689 16.1265 18.119C15.8527 19.4487 15.2025 20.5739 14.2102 21.4603C13.4231 22.1763 12.4649 22.2445 11.5752 21.6649C11.1303 21.3922 10.7539 21.0512 10.4117 20.6762C9.96686 20.1988 9.65888 19.6533 9.21402 19.176C8.01632 17.8462 6.47641 17.1984 4.76541 16.8575C4.35477 16.8234 3.94412 16.7552 3.53348 16.7211ZM41.1414 18.2895C41.1414 20.5057 39.3619 22.2786 37.1718 22.3127C34.9475 22.3127 33.1339 20.5398 33.1339 18.3236C33.1339 16.1074 34.9133 14.3003 37.1376 14.3003C39.3277 14.3003 41.1414 16.0733 41.1414 18.2895Z" fill="url(#paint0_linear)"/>
<defs>
<linearGradient id="paint0_linear" x1="0.149834" y1="39.1812" x2="44.89" y2="0.118417" gradientUnits="userSpaceOnUse">
<stop stop-color="#D4145A"/>
<stop offset="1" stop-color="#2E3192"/>
</linearGradient>
</defs>
</svg>
