<svg width="47" height="44" viewBox="0 0 47 44" fill="none" xmlns="http://www.w3.org/2000/svg">
<path d="M2.28062 3.82248L7.51621 0.827145C7.59436 0.904946 7.63343 0.982747 7.71157 1.06055C8.33672 1.91636 9.04 2.77217 9.66515 3.62798C10.134 4.28929 10.4075 5.0284 10.4075 5.84531C10.4075 6.93453 9.82142 7.75144 8.72742 7.98484C7.98506 8.14044 7.16455 8.21824 6.42219 8.29605C5.60169 8.37385 4.82027 8.45165 4.03884 8.76285C3.10112 9.15186 2.43691 9.77427 2.08527 10.7079C1.77269 11.4859 1.65548 12.3028 1.69455 13.1197C1.77269 14.2089 2.35874 14.9091 3.33553 15.2981C5.09375 15.9983 6.81289 15.8427 8.45389 14.9091C9.00089 14.5979 9.54791 14.2867 10.134 14.0144C11.228 13.4698 12.3611 13.3531 13.5723 13.7032C14.9007 14.0533 16.1119 14.559 17.0496 15.5704C18.1827 16.8153 18.6906 18.2546 18.3781 19.9273C18.2608 20.5886 17.831 21.0943 17.4403 21.5611C16.9715 22.1446 16.4636 22.7281 16.1901 23.4283C15.7603 24.5954 15.8775 25.7235 16.5027 26.8127C17.1669 27.9408 18.339 28.4076 19.6674 28.0964C20.0191 28.0186 20.4098 27.9019 20.7223 27.7074C21.5428 27.2795 21.8554 26.5015 21.9727 25.6457C22.0508 25.0622 22.0508 24.4398 22.0898 23.8174C22.1289 23.0393 22.4415 22.378 22.9885 21.8334C24.0434 20.7442 25.2547 19.9273 26.7003 19.4994C27.8334 19.1493 28.9664 18.7992 30.1386 18.5269C31.6624 18.1768 32.9908 18.6047 34.0067 19.7328C34.7881 20.5886 35.4914 21.5222 36.2338 22.4169C36.6245 22.8837 37.0152 23.3506 37.484 23.7785C38.7343 24.9455 40.219 25.0622 41.7819 24.4787C43.2666 23.9341 44.1652 22.8448 44.3606 21.2888C44.4778 20.433 44.2434 19.6161 44.0089 18.7992C43.501 17.2432 42.4461 16.2318 40.9614 15.6093C40.4535 15.4148 39.9065 15.1814 39.3595 15.0258C37.9138 14.5979 37.1324 13.6254 36.937 12.1472C36.7026 10.4356 36.7807 8.76285 37.0933 7.05123C37.2887 5.96202 37.9529 5.22291 38.8515 4.6005C40.4144 3.51128 42.0163 3.16118 43.7355 3.39458L44.3606 3.74469C45.5327 4.4449 46.2751 5.68971 46.2751 7.05123L46.2751 29.03C46.2751 30.3915 45.5327 31.6364 44.3606 32.3366L25.2546 43.3065C24.0825 44.0067 22.5978 44.0067 21.4257 43.3065L2.31968 32.3366C1.14754 31.6364 0.405168 30.3915 0.405168 29.03L0.40517 7.09013C0.3661 5.72861 1.06941 4.48379 2.28062 3.82248Z" fill="url(#paint0_linear)"/>
<defs>
<linearGradient id="paint0_linear" x1="23.2955" y1="43.8812" x2="23.2955" y2="0.792485" gradientUnits="userSpaceOnUse">
<stop stop-color="#D4145A"/>
<stop offset="1" stop-color="#2E3192"/>
</linearGradient>
</defs>
</svg>
