<svg width="38" height="51" viewBox="0 0 38 51" fill="none" xmlns="http://www.w3.org/2000/svg">
<path d="M32.4906 8.94153C31.7095 8.94153 30.9284 8.90261 30.2645 8.35786C29.6396 7.85201 29.2882 7.19052 29.2491 6.37339C29.2491 5.86754 29.2491 5.40061 29.2101 4.89476C29.132 3.26049 27.5308 2.40445 26.0858 3.14376C25.5 3.45505 24.9141 3.84416 24.2502 4.03872C23.1958 4.38892 21.9071 3.84416 21.3603 2.87138C21.126 2.48227 20.8916 2.05425 20.6183 1.66514C19.7591 0.264334 17.8454 0.303244 17.0253 1.70405C16.791 2.09316 16.5567 2.48227 16.3224 2.87138C15.5804 4.03872 14.1744 4.46674 12.9247 3.84416C12.456 3.61069 12.0264 3.33832 11.5578 3.10485C10.1128 2.36554 8.55071 3.26049 8.4726 4.89476C8.43355 5.47843 8.47257 6.10101 8.39447 6.68468C8.23825 7.92983 7.1838 8.82479 5.89502 8.8637C5.38733 8.8637 4.87967 8.8637 4.37197 8.90261C2.84888 8.94152 1.91159 10.5369 2.61456 11.8988C2.84888 12.3657 3.12222 12.7937 3.35654 13.2218C4.02045 14.428 3.5909 15.9455 2.41929 16.6848C2.02875 16.9183 1.63822 17.1518 1.24768 17.3852C-0.197305 18.3191 -0.197313 20.109 1.28673 21.004C1.67726 21.2375 2.02875 21.432 2.41929 21.6655C3.62995 22.3659 4.0595 23.9612 3.35654 25.2064C3.12222 25.5955 2.88791 26.0235 2.69264 26.4126C1.91157 27.8134 2.84886 29.4477 4.45006 29.4866C4.87965 29.4866 5.3483 29.4866 5.77789 29.4866C7.30098 29.5255 8.39446 30.615 8.43351 32.1326C8.43351 32.6773 8.43354 33.261 8.51165 33.8058C8.74597 35.2066 10.191 35.907 11.4407 35.2844C11.8703 35.0509 12.2998 34.8175 12.7294 34.584C13.901 33.9225 15.4632 34.2727 16.2052 35.4011C16.4786 35.8291 16.7129 36.2572 16.9863 36.6852C17.8845 38.1249 19.7591 38.1249 20.6183 36.6463C20.9307 36.1015 21.2431 35.5568 21.6337 35.0898C22.3757 34.1949 23.7426 34.0003 24.7579 34.5451C25.1875 34.7785 25.6171 35.012 26.0076 35.2455C27.4526 36.0237 29.0538 35.0898 29.0929 33.4556C29.0929 32.9886 29.1319 32.4828 29.1319 32.0159C29.171 30.615 30.3036 29.4866 31.7095 29.4866C32.2953 29.4866 32.8811 29.4866 33.4669 29.4088C34.8338 29.1753 35.5367 27.6967 34.9119 26.4905C34.6776 26.0235 34.4432 25.5955 34.1699 25.1675C33.5059 23.9223 33.8965 22.4048 35.1072 21.6655C35.5367 21.432 35.9273 21.1596 36.3569 20.9262C37.6847 20.0701 37.6847 18.2413 36.3178 17.4242C35.9273 17.1907 35.4977 16.9572 35.1072 16.6849C33.8574 15.9066 33.4669 14.428 34.1699 13.105C34.4042 12.7159 34.6385 12.3268 34.8338 11.8988C35.5758 10.498 34.6776 8.94153 33.0764 8.82479C33.0373 8.94153 32.764 8.94153 32.4906 8.94153ZM19.9543 21.3542C20.0715 21.2764 20.1106 21.1985 20.1887 21.1596C21.165 20.1869 22.1023 19.253 23.0786 18.2802C23.2739 18.0857 23.5082 17.8911 23.7426 17.7744C24.5627 17.3463 25.5 17.6187 26.0858 18.358C26.6325 19.0973 26.5544 20.0701 25.8905 20.7316C24.3674 22.2491 22.8443 23.7667 21.3603 25.2842C20.5792 26.0624 19.4467 26.0624 18.6656 25.2453C15.8537 22.4437 13.0809 19.681 10.2691 16.8794C9.52704 16.1401 9.48796 14.9728 10.1909 14.2334C10.9329 13.4552 12.1046 13.4552 12.8856 14.2334C14.643 15.9455 16.3614 17.6965 18.0798 19.4086C18.6265 20.0701 19.2904 20.6927 19.9543 21.3542Z" fill="url(#paint0_linear)"/>
<path d="M32.4123 36.0239C30.8892 38.9812 27.2963 40.3431 24.133 38.5142C23.6253 39.0979 23.1567 39.7594 22.5709 40.2263C21.9851 40.6933 21.243 41.0435 20.54 41.4326C21.8288 44.5066 23.1567 47.6195 24.4845 50.8102C24.836 50.3821 25.1874 49.993 25.5389 49.6039C26.7496 48.2031 27.9212 46.8023 29.0928 45.4015C29.249 45.2459 29.3662 45.1681 29.6005 45.207C31.7875 45.4015 34.0135 45.5961 36.2396 45.7906C36.3177 45.7906 36.3958 45.7906 36.552 45.7906C35.1851 42.5221 33.8183 39.2925 32.4123 36.0239Z" fill="url(#paint1_linear)"/>
<path d="M1.28663 45.7906C2.30202 45.7128 3.27835 45.635 4.25469 45.5572C5.62156 45.4404 6.98844 45.3237 8.35531 45.207C8.47247 45.207 8.62869 45.2848 8.7068 45.4015C10.1518 47.0747 11.5577 48.7479 12.9636 50.3822C13.0808 50.4989 13.1589 50.6156 13.3151 50.8102C14.6429 47.6195 15.9708 44.4677 17.2986 41.3158C15.7364 40.81 14.5648 39.8761 13.7447 38.4364C12.2607 39.2925 10.6985 39.6038 9.05829 39.1368C7.41804 38.6699 6.20737 37.6193 5.38725 36.0239C4.02038 39.2925 2.6535 42.5221 1.28663 45.7906Z" fill="url(#paint2_linear)"/>
<defs>
<linearGradient id="paint0_linear" x1="30.2013" y1="2.92738" x2="10.2911" y2="31.9351" gradientUnits="userSpaceOnUse">
<stop stop-color="#D4145A"/>
<stop offset="1" stop-color="#2E3192"/>
</linearGradient>
<linearGradient id="paint1_linear" x1="24.0514" y1="35.5419" x2="33.1981" y2="51.9695" gradientUnits="userSpaceOnUse">
<stop stop-color="#2E3192"/>
<stop offset="1" stop-color="#D4145A"/>
</linearGradient>
<linearGradient id="paint2_linear" x1="12.4877" y1="37.3913" x2="5.42849" y2="51.0784" gradientUnits="userSpaceOnUse">
<stop stop-color="#2E3192"/>
<stop offset="1" stop-color="#D4145A"/>
</linearGradient>
</defs>
</svg>
