<svg width="48" height="51" viewBox="0 0 48 51" fill="none" xmlns="http://www.w3.org/2000/svg">
<path d="M0.961807 18.5339C0.961807 18.6117 1.00086 18.6506 1.00086 18.7284C1.00086 19.4288 1.00086 20.1292 1.03991 20.8296C1.11802 21.8413 1.19613 22.8141 1.31329 23.8258C1.46951 25.3044 1.74288 26.822 2.09436 28.2617C2.56301 30.1683 3.14881 32.0361 3.92988 33.826C4.82812 35.8493 5.92162 37.7171 7.24944 39.4681C8.06957 40.5187 8.9678 41.5304 9.90509 42.4642C11.6625 44.1374 13.6152 45.5382 15.7241 46.7056C17.5987 47.7173 19.5513 48.5733 21.5431 49.2348C22.1289 49.4293 22.7537 49.6239 23.3395 49.7795C23.5739 49.8574 23.6129 49.8185 23.6129 49.585C23.652 48.3009 23.6129 47.0169 23.4958 45.7328C23.3395 43.437 22.9881 41.1802 22.5194 38.9233C22.0898 36.8221 21.5431 34.7209 20.9182 32.6586C20.2153 30.324 19.3951 28.0282 18.4578 25.7714C17.4424 23.32 16.3489 20.9075 15.0992 18.5728C14.0448 16.6272 12.9513 14.7595 11.8578 12.8528C11.8187 12.8139 11.7797 12.7361 11.7797 12.6583C11.8578 12.6972 11.9359 12.775 11.9749 12.8139C13.1075 13.8256 14.0838 14.8762 15.0602 15.9268C16.7004 17.7557 18.1845 19.7401 19.5123 21.7635C20.6839 23.5145 21.7383 25.3433 22.6756 27.2111C23.2224 28.3395 23.7301 29.5068 24.2768 30.6353C24.3159 30.6742 24.3159 30.752 24.394 30.7909C24.433 30.6352 24.4721 30.4796 24.5112 30.324C24.9017 28.8453 25.2922 27.3667 25.7218 25.8881C26.2686 24.0593 26.8934 22.2694 27.6745 20.5573C28.2213 19.351 28.8071 18.1837 29.4319 17.0163C29.5491 16.8218 29.471 16.7051 29.3538 16.5494C28.4946 15.5377 27.5964 14.5649 26.62 13.6311C25.2141 12.3081 23.7691 11.0629 22.207 9.85669C19.9809 8.14459 17.6377 6.62706 15.1773 5.22626C12.1702 3.55308 9.08496 2.15228 5.84351 0.984941C5.25771 0.790385 4.6719 0.556918 4.0861 0.362362C3.77367 0.245629 3.77367 0.245628 3.65651 0.556918C3.10976 2.30792 2.68016 4.05892 2.32868 5.84884C1.89909 7.87222 1.58666 9.8956 1.35234 11.9579C1.23518 12.9696 1.15707 14.0202 1.11802 15.0708C1.07897 15.9657 1.07897 16.8218 1.03991 17.7167C1.03991 17.7946 1.00086 17.8724 1.00086 17.9113C0.961805 18.1448 0.961806 18.3393 0.961807 18.5339Z" fill="url(#paint0_linear)"/>
<path d="M37.2817 24.8377C37.3598 25.149 37.477 25.4603 37.516 25.7716C37.7503 26.9389 37.9065 28.1062 37.9456 29.2736C38.0237 30.7911 37.9065 32.3087 37.7503 33.8262C37.4379 36.3554 36.8912 38.8457 36.1491 41.2971C35.6024 43.087 35.0166 44.8381 34.2746 46.5891C33.7669 47.7953 33.2201 48.9626 32.7124 50.13C32.7124 50.1689 32.6734 50.2078 32.6734 50.2856C32.9077 50.1689 33.1029 50.0911 33.2982 49.9743C34.3917 49.3128 35.5243 48.6903 36.6178 47.9899C37.7503 47.2505 38.8048 46.4334 39.8202 45.5384C41.3433 44.1766 42.7101 42.6979 43.8036 40.9858C45.1705 38.9236 46.1078 36.7056 46.6155 34.2931C46.8498 33.2036 46.967 32.1141 47.0451 30.9857C47.1232 29.1568 46.967 27.3669 46.6546 25.577C46.1859 22.8532 45.3267 20.2851 44.1942 17.7559C42.9054 14.8764 41.3433 12.1527 39.4687 9.62344C39.4296 9.58452 39.3906 9.5067 39.3515 9.46779C39.2734 9.38997 39.2344 9.38997 39.1563 9.46779C38.6095 10.0125 38.0237 10.5962 37.477 11.141C37.1645 11.4523 36.8521 11.8025 36.5397 12.1527C35.4852 13.2811 34.4698 14.4873 33.5325 15.7325C32.3609 17.25 31.3065 18.8454 30.3692 20.5186C29.4319 22.1917 28.6118 23.9427 27.9479 25.7327C27.3621 27.2891 26.8934 28.9234 26.581 30.5577C26.3857 31.6083 26.2295 32.6978 26.1123 33.7873C26.0342 34.6822 25.9561 35.5772 25.9561 36.4721C25.9561 37.2504 25.9952 38.0286 26.0342 38.8068C26.1123 40.0131 26.2686 41.2193 26.5029 42.4256C26.8544 44.1376 27.323 45.8108 27.9869 47.4451C28.1431 47.7953 28.2994 48.1455 28.4556 48.4957C28.5727 48.7681 28.6118 48.807 28.8461 48.5735C29.8615 47.5229 30.7207 46.3556 31.4236 45.1104C32.7905 42.7368 33.7278 40.2465 34.5479 37.6395C35.2118 35.5383 35.7586 33.4371 36.1491 31.297C36.5397 29.3125 36.813 27.328 37.1645 25.3435C37.2036 25.1879 37.2036 25.0323 37.2036 24.8766C37.2426 24.8766 37.2426 24.8377 37.2817 24.8377Z" fill="url(#paint1_linear)"/>
<defs>
<linearGradient id="paint0_linear" x1="26.6964" y1="7.83307" x2="0.0161326" y2="43.4528" gradientUnits="userSpaceOnUse">
<stop stop-color="#D4145A"/>
<stop offset="1" stop-color="#2E3192"/>
</linearGradient>
<linearGradient id="paint1_linear" x1="47.0842" y1="29.8959" x2="25.9531" y2="29.8959" gradientUnits="userSpaceOnUse">
<stop stop-color="#D4145A"/>
<stop offset="1" stop-color="#2E3192"/>
</linearGradient>
</defs>
</svg>
