<svg width="26" height="41" viewBox="0 0 26 41" fill="none" xmlns="http://www.w3.org/2000/svg">
<path d="M13.3354 0.915894C13.7178 2.87813 14.639 4.55495 15.6471 6.21393C17.4373 9.17512 19.297 12.0828 21.1046 15.0261C22.582 17.4522 23.9725 19.9139 24.8763 22.6432C25.7801 25.4082 26.0234 28.2266 25.2761 31.063C24.407 34.2917 22.4604 36.6821 19.6968 38.3768C17.3156 39.8395 14.6911 40.3033 11.9449 40.0179C7.42591 39.5541 4.15831 37.1637 2.08999 33.0787C0.994995 30.9203 0.699521 28.5477 0.960233 26.1395C1.25571 23.4459 2.21166 20.9664 3.49784 18.6474C4.83616 16.257 6.31354 13.9558 7.73877 11.6012C8.83376 9.78163 9.9809 7.99778 11.0411 6.16041C11.9797 4.53711 12.7792 2.82461 13.318 1.00509C13.3006 0.969409 13.318 0.951571 13.3354 0.915894ZM11.8059 36.8783C11.858 36.8783 11.9797 36.8783 12.1014 36.8783C12.814 36.8605 13.318 36.1648 13.1095 35.4691C12.9704 34.9874 12.5533 34.7199 11.9623 34.6842C9.49424 34.5771 7.65186 33.3998 6.48735 31.1522C6.01806 30.2424 5.82687 29.2791 5.80949 28.2623C5.79211 27.6201 5.30545 27.1742 4.73188 27.1742C4.12355 27.192 3.67165 27.6736 3.68903 28.3337C3.70641 28.8153 3.72379 29.2791 3.81069 29.7608C4.47117 33.7387 7.77353 36.7178 11.8059 36.8783Z" fill="url(#paint0_linear)"/>
<defs>
<linearGradient id="paint0_linear" x1="-2.36683" y1="6.3914" x2="32.0405" y2="42.1283" gradientUnits="userSpaceOnUse">
<stop stop-color="#D4145A"/>
<stop offset="1" stop-color="#2E3192"/>
</linearGradient>
</defs>
</svg>
